<svg xmlns="http://www.w3.org/2000/svg" viewBox="0 0 14.17 22.38"><defs><style>.cls-1{fill:#fff;}</style></defs><g id="レイヤー_2" data-name="レイヤー 2"><g id="レイヤー_1-2" data-name="レイヤー 1"><path class="cls-1" d="M13.16.12A1.57,1.57,0,0,0,11.41.5L7.74,4.36a4.37,4.37,0,0,0-.66.89,4.72,4.72,0,0,0-.65-.89L2.76.5A1.59,1.59,0,0,0,1,.12,1.57,1.57,0,0,0,0,1.6V13.05a4.14,4.14,0,0,0,.82,2.47l0,0,5.82,6.64a.53.53,0,0,0,.41.19.57.57,0,0,0,.42-.19l5.82-6.64,0,0a4.14,4.14,0,0,0,.82-2.47V1.6A1.58,1.58,0,0,0,13.16.12ZM1.1,13.05V1.6a.49.49,0,0,1,.31-.46A.47.47,0,0,1,2,1.26L5.63,5.12a3.28,3.28,0,0,1,.88,1.93V20.34l-4.82-5.5A3,3,0,0,1,1.1,13.05Zm12,0a3,3,0,0,1-.59,1.79L7.62,20.38V7.51a.51.51,0,0,0,0-.13,3.26,3.26,0,0,1,.9-2.26l3.67-3.86a.49.49,0,0,1,.85.34Z"/></g></g></svg>